HIERARCHY
ROOT Hips
{
  OFFSET -35.2597 29.1586 114.425
  CHANNELS 6 Xposition Yposition Zposition Zrotation Xrotation Yrotation
  JOINT LeftUpLeg
  {
    OFFSET 8.64259 1.95398 -2.38835
    CHANNELS 3 Zrotation Xrotation Yrotation
    JOINT LeftLeg
    {
      OFFSET 43.7702 0 0
      CHANNELS 3 Zrotation Xrotation Yrotation
      JOINT LeftFoot
      {
        OFFSET 40.6238 0 0
        CHANNELS 3 Zrotation Xrotation Yrotation
        JOINT LeftToeBase
        {
          OFFSET 12.7242 0 0
          CHANNELS 3 Zrotation Xrotation Yrotation
          End Site
          {
            OFFSET 0 0 0
          }
        }
      }
    }
  }
  JOINT RightUpLeg
  {
    OFFSET -8.2249 1.95398 -2.59336
    CHANNELS 3 Zrotation Xrotation Yrotation
    JOINT RightLeg
    {
      OFFSET 43.5653 0 0
      CHANNELS 3 Zrotation Xrotation Yrotation
      JOINT RightFoot
      {
        OFFSET 40.6238 0 0
        CHANNELS 3 Zrotation Xrotation Yrotation
        JOINT RightToeBase
        {
          OFFSET 12.7242 0 0
          CHANNELS 3 Zrotation Xrotation Yrotation
          End Site
          {
            OFFSET 0 0 0
          }
        }
      }
    }
  }
  JOINT Spine
  {
    OFFSET 0.165834 0.87714 6.61349
    CHANNELS 3 Zrotation Xrotation Yrotation
    JOINT Spine1
    {
      OFFSET 7.38963 1.71661e-005 0
      CHANNELS 3 Zrotation Xrotation Yrotation
      JOINT Spine2
      {
        OFFSET 11.9445 1.14441e-005 0
        CHANNELS 3 Zrotation Xrotation Yrotation
        JOINT Spine3
        {
          OFFSET 14.7254 4.19617e-005 0
          CHANNELS 3 Zrotation Xrotation Yrotation
          JOINT Spine4
          {
            OFFSET 10.9679 0 0
            CHANNELS 3 Zrotation Xrotation Yrotation
            JOINT RightShoulder
            {
              OFFSET 2.46616 -1.6653 3.69651
              CHANNELS 3 Zrotation Xrotation Yrotation
              JOINT RightArm
              {
                OFFSET 13.0012 0 0
                CHANNELS 3 Zrotation Xrotation Yrotation
                JOINT RightForeArm
                {
                  OFFSET 28.7848 1.62311e-005 0
                  CHANNELS 3 Zrotation Xrotation Yrotation
                  JOINT RightHand
                  {
                    OFFSET 26.5688 1.62095e-005 0
                    CHANNELS 3 Zrotation Xrotation Yrotation
                    End Site
                    {
                      OFFSET 0 0 0
                    }
                  }
                }
              }
            }
            JOINT LeftShoulder
            {
              OFFSET 2.38034 -1.29275 -3.7523
              CHANNELS 3 Zrotation Xrotation Yrotation
              JOINT LeftArm
              {
                OFFSET 16.3182 6.07031e-005 0
                CHANNELS 3 Zrotation Xrotation Yrotation
                JOINT LeftForeArm
                {
                  OFFSET 27.0901 0 0
                  CHANNELS 3 Zrotation Xrotation Yrotation
                  JOINT LeftHand
                  {
                    OFFSET 24.5451 1.51738e-005 0
                    CHANNELS 3 Zrotation Xrotation Yrotation
                    End Site
                    {
                      OFFSET 0 0 0
                    }
                  }
                }
              }
            }
            JOINT Neck
            {
              OFFSET 5.0226 -0.0266342 0
              CHANNELS 3 Zrotation Xrotation Yrotation
              JOINT Head
              {
                OFFSET 6.69364 2.86102e-005 0
                CHANNELS 3 Zrotation Xrotation Yrotation
                End Site
                {
                  OFFSET 0 0 0
                }
              }
            }
          }
        }
      }
    }
  }
}
MOTION
Frames:	6
Frame Time:	0.0416667
-285.69 89.9549 -239.612 -110.525 53.5115 -77.0896 -170.168 18.3875 86.2515 -52.0955 11.9364 -2.79779 77.1832 13.3519 4.43059 21.6871 -4.62765 1.74809 174.805 19.5198 81.5942 -87.5113 -6.15172 -4.65581 67.488 -5.38873 -5.17793 16.7904 1.71742 8.44184 -0.319039 7.94894 -89.8606 10.9768 -0.570553 0.331598 -0.694029 -0.555399 0.356385 -23.2301 -0.643831 0.144784 -3.21746 -0.643838 0.144783 92.7826 -31.9245 -100.639 27.0285 13.1593 51.525 -62.1417 4.75508 -95.6352 -37.1553 12.2592 -41.2071 -85.4847 -52.6762 85.8698 -23.6833 -6.03862 32.3751 66.9088 -5.53308 -94.1336 -3.26575 0.26972 -48.292 18.2278 3.78403 -1.94763 -9.85353 4.1368 1.49914 
-280.841 90.8879 -233.071 -113.29 52.9665 -72.9258 -171.405 21.6419 87.5834 -48.4223 9.51345 -2.35873 68.6477 6.09832 3.58947 18.0513 -4.30148 -2.02659 173.427 3.76059 79.9839 -81.5576 -13.6478 -6.13054 69.6113 -7.38193 -5.21888 18.1703 1.22435 8.41837 1.04306 7.80528 -90.0429 11.2664 2.05603 -0.288833 -0.403082 2.04134 -0.379078 -22.9498 2.04774 0.342634 -2.93716 2.04772 0.342623 93.2452 -25.9337 -101.558 27.3922 11.8104 51.0263 -48.8678 5.91157 -98.6279 -47.2927 14.8401 -38.7983 -83.3937 -49.2758 88.59 -22.0069 -12.2058 54.0108 60.6657 -12.8705 -98.9058 -7.70871 2.66599 -58.8066 12.942 -2.24094 -3.04646 -8.02975 -1.41834 0.199612 
-274.345 94.1317 -225.773 -117.281 53.4083 -69.0582 -173.673 14.9617 89.5946 -24.8426 11.32 -1.99233 50.9057 -5.31244 0.988387 15.7876 -3.90858 -4.40932 173.877 -9.40747 83.1308 -66.366 -23.5418 -8.46921 73.0631 -8.64181 -2.15206 22.2209 0.14796 7.4563 2.30062 7.62327 -90.288 11.6558 4.44108 -1.03781 -0.00803946 4.39108 -1.23264 -22.6055 4.54724 0.347735 -2.59282 4.54724 0.347736 94.6382 -16.2938 -101.782 31.1196 5.33454 52.5086 -42.044 4.07467 -97.1911 -52.2431 13.272 -32.1098 -82.0377 -48.4361 90.5918 -15.8735 -25.4887 64.7959 65.4832 -19.5987 -100.767 -8.16607 3.59255 -69.5301 5.30546 -6.04497 -1.89769 -9.12728 -5.51597 -1.50975 
-265.803 95.7542 -216.838 -109.491 53.4659 -73.6674 -176.211 19.9685 91.9394 -17.4947 21.4997 -0.492583 52.0836 -5.01498 -0.362411 9.94433 -13.3955 4.1838 173.593 -5.71476 86.6838 -51.8178 -18.2107 -4.43503 71.9597 -8.29007 -3.56336 20.7396 -0.212227 9.85804 2.1018 7.05179 -90.3556 12.799 4.00414 -1.18769 1.13356 3.94796 -1.36301 -21.4515 4.17569 0.0727037 -1.4389 4.17568 0.0727036 94.2248 -16.4155 -102.738 32.7814 4.41372 49.6266 -41.9636 -1.17275 -91.8245 -51.5033 12.7539 -31.5646 -82.8318 -49.136 89.43 -15.0273 -28.6481 64.9718 65.0348 -20.8363 -101.51 -6.51717 2.55194 -67.8275 5.72812 -5.7994 -3.21797 -12.1895 -5.09356 -0.107541 
-255.825 93.6285 -207.356 -107.773 49.8149 -76.5287 -174.916 28.8144 92.113 -41.9562 22.5469 -0.708637 62.2959 1.83232 4.06811 17.4355 -6.75439 1.34494 174.304 2.19295 89.4922 -52.9325 -13.4537 -2.97642 74.2101 -10.5264 -7.66308 32.6201 -4.19603 10.5089 1.06389 7.61232 -90.1271 11.6551 2.05667 -0.4677 -0.0143478 2.03408 -0.557804 -22.5626 2.10209 0.172323 -2.54993 2.10212 0.172315 93.4996 -21.3557 -102.553 34.6928 5.50498 47.7269 -39.6711 -6.77397 -83.767 -45.0969 12.5878 -35.3436 -86.4603 -54.1012 84.6502 -17.3795 -26.4485 47.6469 65.6556 -17.8392 -99.9386 -2.40354 -0.0714896 -67.1888 16.8732 -2.43486 -0.71899 -14.3075 -1.70575 -3.9765 
-246.109 91.047 -197.449 -108.995 47.8345 -78.2256 -168.1 31.5065 90.7966 -69.6189 10.7445 -0.590598 70.9148 7.77875 4.27596 20.0618 -4.85478 0.648911 174.193 10.7489 87.8886 -57.8654 -14.0512 -3.41713 81.6001 -15.9713 -5.96754 25.5873 0.0738976 3.89691 -0.152412 8.0583 -89.6823 10.76 -0.15683 0.644935 -0.911049 -0.12828 0.651197 -23.4462 -0.343408 0.567991 -3.4335 -0.343413 0.567986 93.4485 -24.4477 -101.571 38.2655 6.68934 49.6761 -47.2767 -18.0664 -74.7523 -39.6799 10.643 -34.58 -86.61 -53.6474 84.3761 -19.985 -22.4378 23.1323 58.1393 -14.2528 -100.521 -8.49534 3.69822 -68.0555 19.9113 1.94855 -4.21496 -12.626 3.17307 0.248794 
